<svg width="600" height="600" viewBox="0 0 600 600" fill="none" xmlns="http://www.w3.org/2000/svg">
<path d="M163.294 47H437.491C501.918 47 553.785 98.8668 553.785 163.294V437.491C553.785 501.918 501.918 553.785 437.491 553.785H163.294C98.8671 553.785 47 501.918 47 437.491V163.294C47 98.8668 98.8671 47 163.294 47V47Z" fill="#DBF0FF"/>
<g clip-path="url(#clip0_1_15)">
<path d="M308.887 108H335.646C335.646 137.847 335.646 167.649 335.646 197.497C382.006 197.586 428.32 197.362 474.635 197.497C483.763 197.049 496.248 199.689 496.069 211.19C497.77 267.796 496.114 324.537 496.875 381.188C497.054 391.212 496.74 407.008 483.092 407.142C434.003 408.843 384.78 407.277 335.646 407.814C335.646 436.139 335.646 464.51 335.646 492.835H307.903C239.706 480.44 171.331 469.029 103.045 457.037C103 352.639 103 248.241 103 143.888C171.644 131.851 240.288 120.216 308.887 108Z" fill="#0071C5"/>
<path d="M335.646 210.921C385.228 210.966 434.764 210.787 484.345 211.011C483.495 216.873 481.705 222.645 476.783 226.314C447.159 253.924 417.715 281.668 388.181 309.367C370.416 293.303 353.143 276.701 335.646 260.368C335.646 243.856 335.646 227.388 335.646 210.921V210.921Z" fill="white"/>
<path d="M198.94 227.299C224.179 217.768 253.668 231.148 264.363 255.535C278.95 289.097 276.892 335.008 247.895 360.381C221.18 383.247 176.387 370.225 164.216 337.738C148.196 300.284 155.982 242.648 198.94 227.299V227.299Z" fill="white"/>
<path d="M402.232 313.35C429.126 287.799 456.243 262.426 483.271 237.009C483.405 289.454 483.271 341.944 483.316 394.389C434.093 394.389 384.87 394.389 335.646 394.389C335.646 355.369 335.602 316.348 335.691 277.372C352.382 292.139 367.328 308.965 385.049 322.434C392.343 323.776 397.265 317.467 402.232 313.35Z" fill="white"/>
<path d="M203.281 254.193C215.184 248.51 230.085 254.282 235.679 266.051C244.628 283.771 244.584 305.385 238.722 324.09C234.56 337.38 220.017 348.343 205.921 343.108C188.335 337.559 183.01 316.706 182.831 300.373C182.607 283.458 186.5 262.382 203.281 254.193V254.193Z" fill="#0071C5"/>
</g>
<defs>
<clipPath id="clip0_1_15">
<rect width="393.902" height="384.835" fill="white" transform="translate(103 108)"/>
</clipPath>
</defs>
</svg>
