<svg width="32" height="32" viewBox="0 0 32 32" fill="none" xmlns="http://www.w3.org/2000/svg">
<rect width="32" height="32" rx="8" fill="black"/>
<g clip-path="url(#clip0_14_74)">
<path fill-rule="evenodd" clip-rule="evenodd" d="M23.2132 23.0711C23.8615 22.4227 23.9838 21.5458 23.9123 20.7883C23.8399 20.0212 23.5581 19.1882 23.158 18.3573C22.7975 17.6085 22.3168 16.8121 21.7351 16C22.3168 15.1879 22.7975 14.3915 23.158 13.6427C23.5581 12.8118 23.8399 11.9788 23.9123 11.2117C23.9838 10.4542 23.8615 9.57728 23.2132 8.92893C22.5649 8.28059 21.6879 8.15836 20.9304 8.22986C20.1633 8.30228 19.3303 8.58405 18.4994 8.98412C17.7506 9.34464 16.9542 9.8253 16.1421 10.407C15.3301 9.8253 14.5336 9.34464 13.7849 8.98412C12.954 8.58405 12.121 8.30228 11.3538 8.22986C10.5964 8.15836 9.71941 8.28059 9.07107 8.92893C8.42272 9.57728 8.3005 10.4542 8.372 11.2117C8.44441 11.9788 8.72618 12.8118 9.12625 13.6427C9.48678 14.3915 9.96744 15.1879 10.5491 16C9.96744 16.8121 9.48678 17.6085 9.12625 18.3573C8.72618 19.1882 8.44441 20.0212 8.372 20.7883C8.3005 21.5458 8.42272 22.4227 9.07107 23.0711C9.71941 23.7194 10.5964 23.8416 11.3538 23.7701C12.121 23.6977 12.954 23.416 13.7849 23.0159C14.5336 22.6554 15.3301 22.1747 16.1421 21.593C16.9542 22.1747 17.7506 22.6554 18.4994 23.0159C19.3303 23.416 20.1633 23.6977 20.9304 23.7701C21.6879 23.8416 22.5649 23.7194 23.2132 23.0711ZM16.1421 20.1234C16.8666 19.557 17.6034 18.9062 18.3258 18.1837C19.0483 17.4612 19.6992 16.7244 20.2655 16C19.6992 15.2756 19.0483 14.5388 18.3258 13.8163C17.6034 13.0938 16.8666 12.443 16.1421 11.8766C15.4177 12.443 14.6809 13.0938 13.9584 13.8163C13.2359 14.5388 12.5851 15.2756 12.0188 16C12.5851 16.7244 13.2359 17.4612 13.9584 18.1837C14.6809 18.9062 15.4177 19.557 16.1421 20.1234ZM17.1248 20.8454C17.8066 20.2965 18.4904 19.6829 19.1577 19.0156C19.825 18.3483 20.4386 17.6645 20.9876 16.9827C22.599 19.3266 23.2189 21.4015 22.3813 22.2392C21.5437 23.0768 19.4687 22.4568 17.1248 20.8454ZM11.2967 16.9827C11.8456 17.6645 12.4592 18.3483 13.1265 19.0156C13.7938 19.6829 14.4776 20.2965 15.1595 20.8454C12.8155 22.4568 10.7406 23.0768 9.90296 22.2392C9.06533 21.4015 9.68531 19.3266 11.2967 16.9827ZM11.2967 15.0173C11.8456 14.3355 12.4592 13.6517 13.1265 12.9844C13.7938 12.3171 14.4776 11.7035 15.1595 11.1546C12.8155 9.54318 10.7406 8.92319 9.90296 9.76082C9.06533 10.5985 9.68531 12.6734 11.2967 15.0173ZM17.1248 11.1546C17.8066 11.7035 18.4904 12.3171 19.1577 12.9844C19.825 13.6517 20.4386 14.3355 20.9876 15.0173C22.599 12.6734 23.2189 10.5985 22.3813 9.76082C21.5437 8.92319 19.4687 9.54318 17.1248 11.1546Z" fill="white" stroke="white" stroke-width="0.5"/>
</g>
<defs>
<clipPath id="clip0_14_74">
<rect x="4" y="4" width="24" height="24" rx="8" fill="white"/>
</clipPath>
</defs>
</svg>
