<svg width="600" height="600" viewBox="0 0 600 600" fill="none" xmlns="http://www.w3.org/2000/svg">
<path d="M162.904 46.6101H437.102C501.528 46.6101 553.395 98.4769 553.395 162.904V437.101C553.395 501.528 501.528 553.395 437.102 553.395H162.904C98.4772 553.395 46.6101 501.528 46.6101 437.101V162.904C46.6101 98.4769 98.4772 46.6101 162.904 46.6101V46.6101Z" fill="url(#paint0_linear_1_4)"/>
<path d="M157.645 190.727C154.975 190.727 152.46 191.187 150.079 192.135L197.766 241.229L245.981 291.204L246.861 292.26L248.268 293.668L249.676 295.075L252.492 298.067L293.844 340.475C294.532 340.903 296.528 342.751 298.086 343.53C300.094 344.534 302.271 345.459 304.514 345.539C306.935 345.626 309.409 344.932 311.587 343.872C313.219 343.079 313.944 341.941 315.84 340.475L363.703 291.028L412.094 241.229L458.725 193.19C455.731 191.568 452.416 190.727 448.871 190.727H157.645ZM143.04 196.71C137.955 201.528 134.77 208.772 134.77 216.946V378.132C134.77 384.75 136.895 390.762 140.4 395.377L147.087 389.042L196.886 340.651L241.054 297.891L240.174 296.835L191.783 247.036L143.392 197.062L143.04 196.71ZM465.06 198.293L417.901 247.036L369.686 296.835L368.806 297.715L414.733 342.234L464.532 390.625L467.523 393.441C470.205 389.139 471.747 383.839 471.747 378.132V216.946C471.747 209.658 469.221 203.049 465.06 198.293ZM246.685 303.698L202.693 346.458L152.718 394.849L146.383 401.008C149.723 403.158 153.524 404.527 157.645 404.527H448.871C453.826 404.527 458.32 402.621 462.068 399.6L458.901 396.432L408.926 348.041L362.999 303.698L321.647 346.282C319.409 347.765 317.913 349.411 315.728 350.422C312.21 352.048 308.356 353.424 304.481 353.365C300.596 353.305 296.787 351.785 293.3 350.07C291.55 349.209 290.618 348.353 288.565 346.634L246.685 303.698Z" fill="white"/>
<defs>
<linearGradient id="paint0_linear_1_4" x1="303.551" y1="551.361" x2="304.044" y2="52.7282" gradientUnits="userSpaceOnUse">
<stop stop-color="#70EFFF"/>
<stop offset="1" stop-color="#5770FF"/>
</linearGradient>
</defs>
</svg>
