<svg fill="none" height="600" viewBox="0 0 600 600" width="600" xmlns="http://www.w3.org/2000/svg" xmlns:xlink="http://www.w3.org/1999/xlink"><clipPath id="a"><path d="m103 108h393.902v384.835h-393.902z"/></clipPath><path d="m163.294 47h274.197c64.427 0 116.294 51.8668 116.294 116.294v274.197c0 64.427-51.867 116.294-116.294 116.294h-274.197c-64.4269 0-116.294-51.867-116.294-116.294v-274.197c0-64.4272 51.8671-116.294 116.294-116.294z" fill="#dbf0ff"/><g clip-path="url(#a)"><path d="m308.887 108h26.759v89.497c46.36.089 92.674-.135 138.989 0 9.128-.448 21.613 2.192 21.434 13.693 1.701 56.606.045 113.347.806 169.998.179 10.024-.135 25.82-13.783 25.954-49.089 1.701-98.312.135-147.446.672v85.021h-27.743c-68.197-12.395-136.572-23.806-204.858-35.798-.045-104.398-.045-208.796-.045-313.149 68.644-12.037 137.288-23.672 205.887-35.888z" fill="#0071c5"/><g fill="#fff"><path d="m335.646 210.921c49.582.045 99.118-.134 148.699.09-.85 5.862-2.64 11.634-7.562 15.303-29.624 27.61-59.068 55.354-88.602 83.053-17.765-16.064-35.038-32.666-52.535-48.999 0-16.512 0-32.98 0-49.447z"/><path d="m198.94 227.299c25.239-9.531 54.728 3.849 65.423 28.236 14.587 33.562 12.529 79.473-16.468 104.846-26.715 22.866-71.508 9.844-83.679-22.643-16.02-37.454-8.234-95.09 34.724-110.439z"/><path d="m402.232 313.35c26.894-25.551 54.011-50.924 81.039-76.341.134 52.445 0 104.935.045 157.38-49.223 0-98.446 0-147.67 0 0-39.02-.044-78.041.045-117.017 16.691 14.767 31.637 31.593 49.358 45.062 7.294 1.342 12.216-4.967 17.183-9.084z"/></g><path d="m203.281 254.193c11.903-5.683 26.804.089 32.398 11.858 8.949 17.72 8.905 39.334 3.043 58.039-4.162 13.29-18.705 24.253-32.801 19.018-17.586-5.549-22.911-26.402-23.09-42.735-.224-16.915 3.669-37.991 20.45-46.18z" fill="#0071c5"/></g></svg>