<svg width="600" height="600" viewBox="0 0 600 600" fill="none" xmlns="http://www.w3.org/2000/svg">
<path d="M163.294 47H437.491C501.918 47 553.785 98.8668 553.785 163.294V437.491C553.785 501.918 501.918 553.785 437.491 553.785H163.294C98.8671 553.785 47 501.918 47 437.491V163.294C47 98.8668 98.8671 47 163.294 47V47Z" fill="#5F01D1"/>
<path d="M246.887 447.856H184.887L209.887 388.856L140.887 223.856H203.887L240.887 318.856L277.887 223.856H339.887M397.887 299.856H328.887L390.887 151.856H459.887" fill="white"/>
<path d="M346.887 389.856C367.874 389.856 384.887 372.843 384.887 351.856C384.887 330.869 367.874 313.856 346.887 313.856C325.9 313.856 308.887 330.869 308.887 351.856C308.887 372.843 325.9 389.856 346.887 389.856Z" fill="white"/>
</svg>
