<svg fill="none" height="32" viewBox="0 0 119 32" width="119" xmlns="http://www.w3.org/2000/svg" xmlns:xlink="http://www.w3.org/1999/xlink"><clipPath id="a"><rect height="32" rx="8" width="32"/></clipPath><g clip-path="url(#a)"><path clip-rule="evenodd" d="m24.4558 24.4853c.7781-.778.9247-1.8304.8389-2.7393-.0869-.9206-.425-1.9202-.9051-2.9173-.4326-.8985-1.0094-1.8542-1.7075-2.8287.6981-.9745 1.2749-1.9302 1.7075-2.8287.4801-.9971.8182-1.9967.9051-2.9173.0858-.90892-.0608-1.96127-.8389-2.73928-.778-.77801-1.8303-.92468-2.7393-.83888-.9205.08689-1.9201.42502-2.9172.9051-.8986.43263-1.8543 1.00942-2.8287 1.70748-.9745-.69806-1.9302-1.27485-2.8288-1.70748-.9971-.48008-1.9967-.81821-2.9172-.9051-.90896-.0858-1.96131.06087-2.73932.83888s-.92468 1.83036-.83888 2.73928c.0869.9206.42502 1.9202.9051 2.9173.43264.8985 1.00942 1.8542 1.70748 2.8287-.69806.9745-1.27484 1.9302-1.70748 2.8287-.48008.9971-.8182 1.9967-.9051 2.9173-.0858.9089.06087 1.9613.83888 2.7393s1.83036.9247 2.73932.8389c.9205-.0869 1.9201-.4251 2.9172-.9051.8986-.4327 1.8543-1.0095 2.8288-1.7075.9744.698 1.9301 1.2748 2.8287 1.7075.9971.48 1.9967.8182 2.9172.9051.909.0858 1.9613-.0609 2.7393-.8389zm-8.4852-3.5373c.8693-.6796 1.7534-1.4606 2.6204-2.3275.867-.867 1.648-1.7512 2.3276-2.6205-.6796-.8693-1.4606-1.7535-2.3276-2.6205-.867-.8669-1.7511-1.6479-2.6204-2.3275-.8694.6796-1.7535 1.4606-2.6205 2.3275-.867.867-1.648 1.7512-2.3276 2.6205.6796.8693 1.4606 1.7535 2.3276 2.6205.867.8669 1.7511 1.6479 2.6205 2.3275zm1.1792.8665c.8182-.6587 1.6387-1.395 2.4395-2.1958.8007-.8007 1.5371-1.6213 2.1958-2.4395 1.9336 2.8127 2.6776 5.3027 1.6725 6.3078-1.0052 1.0052-3.4951.2612-6.3078-1.6725zm-6.9938-4.6353c.6588.8182 1.3951 1.6388 2.1958 2.4395.8008.8008 1.6213 1.5371 2.4396 2.1958-2.8128 1.9337-5.30269 2.6777-6.30785 1.6725-1.00516-1.0051-.26117-3.4951 1.67245-6.3078zm0-2.3584c.6588-.8182 1.3951-1.6388 2.1958-2.4395.8008-.8008 1.6213-1.5371 2.4396-2.1958-2.8128-1.93368-5.30269-2.67767-6.30785-1.67251s-.26117 3.49511 1.67245 6.30781zm6.9938-4.6353c.8182.6587 1.6387 1.395 2.4395 2.1958.8007.8007 1.5371 1.6213 2.1958 2.4395 1.9336-2.8127 2.6776-5.30265 1.6725-6.30781-1.0052-1.00516-3.4951-.26117-6.3078 1.67251z" fill="#fff" fill-rule="evenodd" stroke="#fff" stroke-width=".5"/></g><g fill="#fff"><path d="m36 22.176v-8.432h1.936l.032 2.688-.272-.608c.1173-.4267.32-.8107.608-1.152s.6187-.608.992-.8c.384-.2027.784-.304 1.2-.304.1813 0 .352.016.512.048.1707.032.3093.0693.416.112l-.528 2.16c-.1173-.064-.2613-.1173-.432-.16s-.3413-.064-.512-.064c-.2667 0-.5227.0533-.768.16-.2347.096-.4427.2347-.624.416s-.3253.3947-.432.64c-.096.2347-.144.5013-.144.8v4.496z"/><path d="m45.907 22.336c-.8853 0-1.6693-.1867-2.352-.56-.672-.3733-1.2-.88-1.584-1.52-.3733-.6507-.56-1.392-.56-2.224 0-.6613.1067-1.264.32-1.808s.5067-1.0133.88-1.408c.384-.4053.8373-.7147 1.36-.928.5333-.224 1.1147-.336 1.744-.336.5547 0 1.072.1067 1.552.32s.896.5067 1.248.88c.352.3627.6187.8.8 1.312.192.5013.2827 1.0507.272 1.648l-.016.688h-6.832l-.368-1.344h5.552l-.256.272v-.352c-.032-.3307-.1387-.6187-.32-.864-.1813-.256-.416-.4533-.704-.592-.2773-.1493-.5867-.224-.928-.224-.5227 0-.9653.1013-1.328.304-.352.2027-.6187.496-.8.88-.1813.3733-.272.8427-.272 1.408 0 .544.112 1.0187.336 1.424.2347.4053.56.72.976.944.4267.2133.9227.32 1.488.32.3947 0 .7573-.064 1.088-.192s.688-.3573 1.072-.688l.976 1.36c-.288.2667-.6187.496-.992.688-.3627.1813-.7467.3253-1.152.432s-.8053.16-1.2.16z"/><path d="m54.094 22.336c-.6933 0-1.3227-.192-1.888-.576s-1.0187-.9067-1.36-1.568-.512-1.4133-.512-2.256.1707-1.5947.512-2.256.8053-1.1787 1.392-1.552 1.248-.56 1.984-.56c.4267 0 .816.064 1.168.192.352.1173.6613.288.928.512s.4853.48.656.768c.1813.288.304.5973.368.928l-.432-.112v-2.112h1.984v8.432h-2v-2.016l.464-.08c-.0747.288-.2133.5707-.416.848-.192.2667-.4373.5067-.736.72-.288.2027-.6133.368-.976.496-.352.128-.7307.192-1.136.192zm.544-1.744c.4587 0 .864-.112 1.216-.336s.624-.5333.816-.928c.2027-.4053.304-.8693.304-1.392 0-.512-.1013-.9653-.304-1.36-.192-.3947-.464-.704-.816-.928s-.7573-.336-1.216-.336-.864.112-1.216.336c-.3413.224-.608.5333-.8.928s-.288.848-.288 1.36c0 .5227.096.9867.288 1.392.192.3947.4587.704.8.928.352.224.7573.336 1.216.336z"/><path d="m64.3716 22.336c-.7893 0-1.4986-.192-2.128-.576-.6293-.384-1.1253-.9067-1.488-1.568-.3626-.6613-.544-1.408-.544-2.24s.1814-1.5787.544-2.24c.3627-.6613.8587-1.184 1.488-1.568.6294-.384 1.3387-.576 2.128-.576.7574 0 1.4454.144 2.064.432.6187.288 1.0987.688 1.44 1.2l-1.088 1.312c-.16-.224-.3626-.4267-.608-.608-.2453-.1813-.5066-.3253-.784-.432-.2773-.1067-.5546-.16-.832-.16-.4693 0-.8906.1173-1.264.352-.3626.224-.6506.5387-.864.944-.2133.3947-.32.8427-.32 1.344s.1067.9493.32 1.344c.224.3947.5227.7093.896.944.3734.2347.7894.352 1.248.352.2774 0 .544-.0427.8-.128.2667-.096.5174-.2293.752-.4.2347-.1707.4534-.384.656-.64l1.088 1.328c-.3626.4693-.864.8533-1.504 1.152-.6293.288-1.296.432-2 .432z"/><path d="m69.8726 22.176v-10.576h1.968v10.576zm-1.664-6.608v-1.824h5.472v1.824z"/><path d="m82.9945 22.336c-.8853 0-1.6693-.1867-2.352-.56-.672-.3733-1.2-.88-1.584-1.52-.3733-.6507-.56-1.392-.56-2.224 0-.6613.1067-1.264.32-1.808s.5067-1.0133.88-1.408c.384-.4053.8373-.7147 1.36-.928.5333-.224 1.1147-.336 1.744-.336.5547 0 1.072.1067 1.552.32s.896.5067 1.248.88c.352.3627.6187.8.8 1.312.192.5013.2827 1.0507.272 1.648l-.016.688h-6.832l-.368-1.344h5.552l-.256.272v-.352c-.032-.3307-.1387-.6187-.32-.864-.1813-.256-.416-.4533-.704-.592-.2773-.1493-.5867-.224-.928-.224-.5227 0-.9653.1013-1.328.304-.352.2027-.6187.496-.8.88-.1813.3733-.272.8427-.272 1.408 0 .544.112 1.0187.336 1.424.2347.4053.56.72.976.944.4267.2133.9227.32 1.488.32.3947 0 .7573-.064 1.088-.192s.688-.3573 1.072-.688l.976 1.36c-.288.2667-.6187.496-.992.688-.3627.1813-.7467.3253-1.152.432s-.8053.16-1.2.16z"/><path d="m87.9655 22.176v-8.432h1.936l.032 1.696-.32.128c.096-.2773.24-.5333.432-.768.192-.2453.4213-.4533.688-.624.2667-.1813.5493-.32.848-.416.2987-.1067.6027-.16.912-.16.4587 0 .864.0747 1.216.224.3627.1387.6613.3627.896.672.2453.3093.4267.704.544 1.184l-.304-.064.128-.256c.1173-.256.2827-.4853.496-.688.2133-.2133.4533-.4.72-.56.2667-.1707.544-.2987.832-.384.2987-.0853.592-.128.88-.128.64 0 1.1733.128 1.6.384s.7465.6453.9605 1.168c.213.5227.32 1.168.32 1.936v5.088h-1.9845v-4.96c0-.4267-.0587-.7787-.176-1.056-.1067-.2773-.2773-.48-.512-.608-.224-.1387-.5067-.208-.848-.208-.2667 0-.5227.048-.768.144-.2347.0853-.4373.2133-.608.384-.1707.16-.304.3467-.4.56s-.144.448-.144.704v5.04h-1.984v-4.976c0-.4053-.0587-.7413-.176-1.008-.1173-.2773-.288-.4853-.512-.624-.224-.1493-.496-.224-.816-.224-.2667 0-.5173.048-.752.144-.2347.0853-.4373.208-.608.368s-.304.3467-.4.56-.144.448-.144.704v5.056z"/><path d="m105.73 22.336c-.693 0-1.322-.192-1.888-.576-.565-.384-1.018-.9067-1.36-1.568-.341-.6613-.512-1.4133-.512-2.256s.171-1.5947.512-2.256c.342-.6613.806-1.1787 1.392-1.552.587-.3733 1.248-.56 1.984-.56.427 0 .816.064 1.168.192.352.1173.662.288.928.512.267.224.486.48.656.768.182.288.304.5973.368.928l-.432-.112v-2.112h1.984v8.432h-2v-2.016l.464-.08c-.074.288-.213.5707-.416.848-.192.2667-.437.5067-.736.72-.288.2027-.613.368-.976.496-.352.128-.73.192-1.136.192zm.544-1.744c.459 0 .864-.112 1.216-.336s.624-.5333.816-.928c.203-.4053.304-.8693.304-1.392 0-.512-.101-.9653-.304-1.36-.192-.3947-.464-.704-.816-.928s-.757-.336-1.216-.336c-.458 0-.864.112-1.216.336-.341.224-.608.5333-.8.928s-.288.848-.288 1.36c0 .5227.096.9867.288 1.392.192.3947.459.704.8.928.352.224.758.336 1.216.336z"/><path d="m112.616 22.176v-8.432h1.968v8.432zm.96-10.224c-.395 0-.704-.096-.928-.288-.213-.2027-.32-.4853-.32-.848 0-.3413.112-.6187.336-.832.224-.21333.528-.32.912-.32.405 0 .715.10134.928.304.224.192.336.4747.336.848 0 .3307-.112.6027-.336.816s-.533.32-.928.32z"/><path d="m116.675 22.176v-11.84h1.984v11.84z"/></g></svg>