<svg width="552" height="552" viewBox="0 0 552 552" fill="none" xmlns="http://www.w3.org/2000/svg">
<path fill-rule="evenodd" clip-rule="evenodd" d="M522.336 524.053C545.082 501.31 549.369 470.546 546.857 443.974C544.318 417.063 534.434 387.841 520.402 358.693C507.752 332.425 490.89 304.486 470.484 275.999C490.89 247.511 507.752 219.573 520.402 193.305C534.434 164.156 544.318 134.934 546.857 108.023C549.369 81.4513 545.082 50.6872 522.336 27.9431C499.591 5.19893 468.827 0.911297 442.255 3.41954C415.344 5.95982 386.122 15.8444 356.974 29.879C330.706 42.5264 302.767 59.3878 274.28 79.7948C245.792 59.3878 217.853 42.5264 191.585 29.879C162.437 15.8444 133.215 5.95984 106.304 3.41954C79.732 0.911282 48.9681 5.19893 26.2239 27.9431C3.47978 50.6872 -0.807868 81.4513 1.70039 108.023C4.24068 134.934 14.1253 164.156 28.1598 193.305C40.8073 219.573 57.6691 247.511 78.0755 275.999C57.6691 304.486 40.8073 332.425 28.1598 358.693C14.1253 387.841 4.24068 417.063 1.70039 443.974C-0.807868 470.546 3.47978 501.31 26.2239 524.053C48.9681 546.799 79.732 551.086 106.304 548.578C133.215 546.04 162.437 536.151 191.585 522.119C217.853 509.471 245.792 492.61 274.28 472.203C302.767 492.61 330.706 509.471 356.974 522.119C386.122 536.151 415.344 546.04 442.255 548.578C468.827 551.086 499.591 546.799 522.336 524.053ZM274.28 420.648C299.693 400.78 325.54 377.949 350.885 352.604C376.23 327.259 399.061 301.412 418.928 275.999C399.061 250.585 376.23 224.739 350.885 199.394C325.54 174.049 299.693 151.217 274.28 131.35C248.866 151.217 223.019 174.049 197.674 199.394C172.329 224.739 149.498 250.585 129.631 275.999C149.498 301.412 172.329 327.259 197.674 352.604C223.019 377.949 248.866 400.78 274.28 420.648ZM308.752 445.979C332.671 426.722 356.659 405.196 380.068 381.787C403.477 358.378 425.003 334.391 444.259 310.471C500.787 392.697 522.538 465.487 493.152 494.871C463.768 524.254 390.978 502.507 308.752 445.979ZM104.3 310.471C123.557 334.391 145.082 358.378 168.491 381.787C191.9 405.196 215.888 426.722 239.807 445.979C157.582 502.507 84.7913 524.254 55.4069 494.871C26.0225 465.487 47.772 392.697 104.3 310.471ZM104.3 241.527C123.557 217.607 145.082 193.619 168.491 170.21C191.9 146.801 215.888 125.275 239.807 106.019C157.582 49.4911 84.7913 27.7417 55.4069 57.1261C26.0225 86.5106 47.772 159.301 104.3 241.527ZM308.752 106.019C332.671 125.275 356.659 146.801 380.068 170.21C403.477 193.619 425.003 217.607 444.259 241.527C500.787 159.3 522.538 86.5106 493.152 57.1261C463.768 27.7416 390.978 49.4911 308.752 106.019Z" fill="#161618"/>
</svg>
