<svg width="32" height="32" viewBox="0 0 32 32" fill="none" xmlns="http://www.w3.org/2000/svg">
<rect width="32" height="32" rx="10" fill="#161618"/>
<path d="M23.264 25H19.568L16.76 18.496H13.208V25H9.92V7.408H16.712C18.84 7.408 20.44 7.888 21.512 8.848C22.6 9.792 23.144 11.16 23.144 12.952C23.144 14.168 22.88 15.208 22.352 16.072C21.84 16.92 21.08 17.544 20.072 17.944L23.264 25ZM19.688 12.952C19.688 12.136 19.44 11.496 18.944 11.032C18.464 10.552 17.72 10.312 16.712 10.312H13.208V15.616H16.688C17.712 15.616 18.464 15.376 18.944 14.896C19.44 14.416 19.688 13.768 19.688 12.952Z" fill="white"/>
</svg>
